<?xml version="1.0" encoding="utf-8"?>
<svg version="1.1" xmlns:xlink="http://www.w3.org/1999/xlink" width="27px" height="27px" xmlns="http://www.w3.org/2000/svg">
  <g transform="matrix(1 0 0 1 -3778 -1798 )">
    <path d="M 3791.5 1798  C 3799.06 1798  3805 1803.94  3805 1811.5  C 3805 1819.06  3799.06 1825  3791.5 1825  C 3783.94 1825  3778 1819.06  3778 1811.5  C 3778 1803.94  3783.94 1798  3791.5 1798  Z " fill-rule="nonzero" fill="#aaaaaa" stroke="none" />
    <path d="M 3791.5 1798.5  C 3798.78 1798.5  3804.5 1804.22  3804.5 1811.5  C 3804.5 1818.78  3798.78 1824.5  3791.5 1824.5  C 3784.22 1824.5  3778.5 1818.78  3778.5 1811.5  C 3778.5 1804.22  3784.22 1798.5  3791.5 1798.5  Z " stroke-width="1" stroke="#797979" fill="none" />
  </g>
</svg>